<!-- Generated by IcoMoon.io -->
<svg version="1.1" xmlns="http://www.w3.org/2000/svg" width="23" height="32" viewBox="0 0 23 32">
<title>pinterest</title>
<path d="M0 10.661c0-6.59 6.035-10.661 12.143-10.661 5.607 0 10.714 3.857 10.714 9.768 0 5.553-2.839 11.714-9.161 11.714-1.501 0-3.393-0.75-4.125-2.143-1.358 5.375-1.25 6.178-4.25 10.286l-0.25 0.089-0.161-0.178c-0.107-1.125-0.267-2.232-0.267-3.358 0-3.642 1.679-8.911 2.501-12.447-0.447-0.911-0.571-2.018-0.571-3.018 0-1.803 1.25-4.089 3.286-4.089 1.501 0 2.304 1.143 2.304 2.553 0 2.321-1.571 4.501-1.571 6.75 0 1.536 1.267 2.607 2.75 2.607 4.107 0 5.375-5.928 5.375-9.089 0-4.232-3-6.536-7.054-6.536-4.714 0-8.358 3.393-8.358 8.178 0 2.304 1.41 3.482 1.41 4.035 0 0.464-0.339 2.107-0.928 2.107-0.089 0-0.214-0.035-0.304-0.054-2.553-0.768-3.482-4.178-3.482-6.518z"></path>
</svg>
